<svg version="1.2" xmlns="http://www.w3.org/2000/svg" viewBox="0 0 1000 1000" width="1000" height="1000">
	<title>2136911-ai</title>
	<defs>
		<clipPath clipPathUnits="userSpaceOnUse" id="cp1">
			<path d="m537.84 360.09l-75.09-11.15 6.36 42.5z"/>
		</clipPath>
		<clipPath clipPathUnits="userSpaceOnUse" id="cp2">
			<path d="m126.74 391.02l5.91 45.17-46.63 6.29c-4.24 0.57-8.14-2.4-8.71-6.64l-4.23-31.16c-0.58-4.33 2.52-8.29 6.87-8.75z"/>
		</clipPath>
	</defs>
	<style>
		.s0 { fill: #d5d8ef } 
		.s1 { fill: #1f143f } 
		.s2 { fill: #4266b0 } 
		.s3 { fill: #c1c6e0 } 
		.s4 { fill: #ffffff } 
		.s5 { fill: none;stroke: #d5d8ef;stroke-miterlimit:10;stroke-width: 2 } 
		.s6 { fill: #e95a4f } 
		.s7 { fill: #eeeaed } 
		.s8 { fill: #ffbb00 } 
		.s9 { opacity: .2;fill: #ffffff } 
		.s10 { opacity: .2;fill: #231f20 } 
		.s11 { fill: #c95b59 } 
		.s12 { fill: none;stroke: #506d75;stroke-miterlimit:10;stroke-width: 2 } 
		.s13 { fill: #68838c } 
		.s14 { fill: #fab594 } 
		.s15 { fill: #4c83c3 } 
		.s16 { fill: #dfeae5 } 
		.s17 { fill: #eb977d } 
		.s18 { fill: #231f20 } 
		.s19 { fill: #72c384 } 
		.s20 { fill: #274169 } 
		.s21 { fill: #6a8fbc } 
		.s22 { fill: #a0b3d9 } 
		.s23 { fill: #5a82ad } 
	</style>
	<g id="OBJECTS">
		<g id="&lt;Group&gt;">
			<path id="&lt;Path&gt;" class="s0" d="m28.2 785.4c0 6.9 210.9 12.5 471.1 12.5 260.2 0 471.2-5.6 471.2-12.5 0-7-211-12.6-471.2-12.6-260.2 0-471.1 5.6-471.1 12.6z"/>
		</g>
		<g id="&lt;Group&gt;">
			<g id="&lt;Group&gt;">
				<path id="&lt;Path&gt;" class="s1" d="m768.5 786.5h-396.7c-4.4 0-8-3.6-8-8v-582.4c0-4.4 3.6-8 8-8h396.7c4.4 0 8 3.6 8 8v582.4c0 4.4-3.6 8-8 8z"/>
			</g>
			<path id="&lt;Path&gt;" class="s2" d="m761.4 786.5h-396.7c-4.4 0-8-3.6-8-8v-582.4c0-4.4 3.6-8 8-8h396.7c4.4 0 8 3.6 8 8v582.4c0 4.4-3.6 8-8 8z"/>
			<g id="&lt;Group&gt;">
				<path id="&lt;Path&gt;" class="s3" d="m748.6 760.6h-356.9v-546.6h356.9z"/>
			</g>
			<path id="&lt;Path&gt;" class="s4" d="m741.6 760.6h-357v-546.6h357z"/>
			<g id="&lt;Group&gt;">
				<path id="&lt;Path&gt;" class="s1" d="m649.7 226.3h-173.3v-42.4c0-5.5 4.5-10 10-10h153.3c5.6 0 10 4.5 10 10z"/>
			</g>
			<g id="&lt;Group&gt;">
				<g id="&lt;Group&gt;">
					<path id="&lt;Compound Path&gt;" fill-rule="evenodd" class="s1" d="m603.4 173.9c0 22.3-18 40.3-40.3 40.3-22.3 0-40.4-18-40.4-40.3 0-22.3 18.1-40.4 40.4-40.4 22.3 0 40.3 18.1 40.3 40.4zm-20.1 0c0-11.2-9.1-20.2-20.2-20.2-11.2 0-20.2 9-20.2 20.2 0 11.1 9 20.2 20.2 20.2 11.1 0 20.2-9.1 20.2-20.2z"/>
				</g>
			</g>
			<g id="&lt;Group&gt;">
				<g id="&lt;Group&gt;">
					<path id="&lt;Path&gt;" class="s5" d="m686.3 367.8h-35.4c-2.3 0-4-1.8-4-4v-35.4c0-2.2 1.7-4 4-4h35.4c2.2 0 4 1.8 4 4v35.4c0 2.2-1.8 4-4 4z"/>
				</g>
				<g id="&lt;Group&gt;">
					<g id="&lt;Group&gt;">
						<path id="&lt;Path&gt;" class="s6" d="m634.6 340.1q10.8 10.8 21.5 21.5c1.9 1.9 5.2 1.9 7.1 0q25.2-25.2 50.3-50.3c4.6-4.6-2.5-11.7-7-7.1q-25.2 25.2-50.4 50.3 3.6 0 7.1 0-10.8-10.7-21.5-21.5c-4.6-4.5-11.6 2.6-7.1 7.1z"/>
					</g>
				</g>
				<g id="&lt;Group&gt;">
					<path id="&lt;Path&gt;" class="s5" d="m686.3 452.1h-35.4c-2.3 0-4-1.8-4-4v-35.5c0-2.2 1.7-4 4-4h35.4c2.2 0 4 1.8 4 4v35.5c0 2.2-1.8 4-4 4z"/>
				</g>
				<g id="&lt;Group&gt;">
					<g id="&lt;Group&gt;">
						<path id="&lt;Path&gt;" class="s6" d="m634.6 424.3q10.8 10.8 21.5 21.5c1.9 1.9 5.2 1.9 7.1 0q25.2-25.2 50.3-50.3c4.6-4.6-2.5-11.7-7-7.1q-25.2 25.2-50.4 50.3 3.6 0 7.1 0-10.8-10.7-21.5-21.4c-4.6-4.6-11.6 2.5-7.1 7z"/>
					</g>
				</g>
				<g id="&lt;Group&gt;">
					<path id="&lt;Path&gt;" class="s5" d="m686.3 532.4h-35.4c-2.3 0-4-1.8-4-4v-35.4c0-2.3 1.7-4 4-4h35.4c2.2 0 4 1.7 4 4v35.4c0 2.2-1.8 4-4 4z"/>
				</g>
				<g id="&lt;Group&gt;">
					<g id="&lt;Group&gt;">
						<path id="&lt;Path&gt;" class="s6" d="m634.6 504.6q10.8 10.8 21.5 21.5c1.9 1.9 5.2 1.9 7.1 0q25.2-25.1 50.3-50.3c4.6-4.6-2.5-11.6-7-7.1q-25.2 25.2-50.4 50.4 3.6 0 7.1 0-10.8-10.8-21.5-21.5c-4.6-4.6-11.6 2.5-7.1 7z"/>
					</g>
				</g>
				<g id="&lt;Group&gt;">
					<path id="&lt;Path&gt;" class="s5" d="m686.3 614h-35.4c-2.3 0-4-1.8-4-4v-35.4c0-2.2 1.7-4 4-4h35.4c2.2 0 4 1.8 4 4v35.4c0 2.2-1.8 4-4 4z"/>
				</g>
				<g id="&lt;Group&gt;">
					<g id="&lt;Group&gt;">
						<path id="&lt;Path&gt;" class="s6" d="m634.6 586.3q10.8 10.7 21.5 21.4c1.9 2 5.2 2 7.1 0q25.2-25.1 50.3-50.3c4.6-4.6-2.5-11.6-7-7.1q-25.2 25.2-50.4 50.4 3.6 0 7.1 0-10.8-10.8-21.5-21.5c-4.6-4.6-11.6 2.5-7.1 7.1z"/>
					</g>
				</g>
				<g id="&lt;Group&gt;">
					<g id="&lt;Group&gt;">
						<path id="&lt;Path&gt;" class="s3" d="m613.6 329.6h-179.2c-1.1 0-2-0.9-2-2v-3.1c0-1.1 0.9-2 2-2h179.2c1.1 0 2 0.9 2 2v3.1c0 1.1-0.9 2-2 2z"/>
					</g>
					<g id="&lt;Group&gt;">
						<path id="&lt;Path&gt;" class="s3" d="m613.6 348.1h-179.2c-1.1 0-2-0.9-2-2v-3.2c0-1.1 0.9-2 2-2h179.2c1.1 0 2 0.9 2 2v3.2c0 1.1-0.9 2-2 2z"/>
					</g>
					<g id="&lt;Group&gt;">
						<path id="&lt;Path&gt;" class="s3" d="m570.4 366.5h-136c-1.1 0-2-0.9-2-2v-3.1c0-1.1 0.9-2 2-2h136c1.1 0 2 0.9 2 2v3.1c0 1.1-0.9 2-2 2z"/>
					</g>
					<g id="&lt;Group&gt;">
						<path id="&lt;Path&gt;" class="s3" d="m613.6 413.9h-179.2c-1.1 0-2-0.9-2-2v-3.2c0-1.1 0.9-2 2-2h179.2c1.1 0 2 0.9 2 2v3.2c0 1.1-0.9 2-2 2z"/>
					</g>
					<g id="&lt;Group&gt;">
						<path id="&lt;Path&gt;" class="s3" d="m613.6 432.3h-179.2c-1.1 0-2-0.9-2-2v-3.2c0-1.1 0.9-2 2-2h179.2c1.1 0 2 0.9 2 2v3.2c0 1.1-0.9 2-2 2z"/>
					</g>
					<g id="&lt;Group&gt;">
						<path id="&lt;Path&gt;" class="s3" d="m570.4 450.8h-136c-1.1 0-2-0.9-2-2v-3.2c0-1.1 0.9-2 2-2h136c1.1 0 2 0.9 2 2v3.2c0 1.1-0.9 2-2 2z"/>
					</g>
					<g id="&lt;Group&gt;">
						<path id="&lt;Path&gt;" class="s3" d="m613.6 494.2h-179.2c-1.1 0-2-0.9-2-2v-3.2c0-1.1 0.9-2 2-2h179.2c1.1 0 2 0.9 2 2v3.2c0 1.1-0.9 2-2 2z"/>
					</g>
					<g id="&lt;Group&gt;">
						<path id="&lt;Path&gt;" class="s3" d="m613.6 512.6h-179.2c-1.1 0-2-0.9-2-2v-3.1c0-1.1 0.9-2 2-2h179.2c1.1 0 2 0.9 2 2v3.1c0 1.1-0.9 2-2 2z"/>
					</g>
					<g id="&lt;Group&gt;">
						<path id="&lt;Path&gt;" class="s3" d="m570.4 531.1h-136c-1.1 0-2-0.9-2-2v-3.2c0-1.1 0.9-2 2-2h136c1.1 0 2 0.9 2 2v3.2c0 1.1-0.9 2-2 2z"/>
					</g>
					<g id="&lt;Group&gt;">
						<path id="&lt;Path&gt;" class="s3" d="m613.6 575.8h-179.2c-1.1 0-2-0.9-2-2v-3.2c0-1.1 0.9-2 2-2h179.2c1.1 0 2 0.9 2 2v3.2c0 1.1-0.9 2-2 2z"/>
					</g>
					<g id="&lt;Group&gt;">
						<path id="&lt;Path&gt;" class="s3" d="m613.6 594.2h-179.2c-1.1 0-2-0.9-2-2v-3.1c0-1.1 0.9-2 2-2h179.2c1.1 0 2 0.9 2 2v3.1c0 1.1-0.9 2-2 2z"/>
					</g>
					<g id="&lt;Group&gt;">
						<path id="&lt;Path&gt;" class="s3" d="m570.4 612.7h-136c-1.1 0-2-0.9-2-2v-3.2c0-1.1 0.9-2 2-2h136c1.1 0 2 0.9 2 2v3.2c0 1.1-0.9 2-2 2z"/>
					</g>
				</g>
			</g>
		</g>
		<g id="&lt;Group&gt;">
			<g id="&lt;Group&gt;">
				<path id="&lt;Path&gt;" class="s1" d="m378.3 349.9c9 0.7 25.2 7 22 19.1-0.2 0.5-0.4 1-0.8 1.4-0.5 0.5-1.4 0.5-2.1 0.6-4.1 0.1-8.4-0.2-11.5-2.8-2-1.6-3.2-4-5.3-5.5-1.1-0.9-2.6-1.4-3.9-1.9q-3.6-1.2-7.2-2.5c-1.3-0.4-2.7-1-3.1-2.3-0.4-1.4 0.7-2.8 1.9-3.7 2.8-2.1 6.5-2.7 10-2.4z"/>
			</g>
			<g id="&lt;Group&gt;">
				<path id="&lt;Path&gt;" class="s1" d="m167.8 786.6q0 0 0.1 0.1c3.8 0.7 7.6 0.6 11.5 0.6 7 0.1 13.9 0.1 20.9-0.2 4.3-0.2 6-2.3 6.8-6.3 0.8-4.1 1.2-8.4 0.9-12.6 0-0.4 0-0.8-0.2-1.2-0.3-0.4-0.8-0.6-1.3-0.8q-2.6-0.9-5.3-1.3c-1.2-0.1-3.5-0.5-4.5 0.3-1.1 0.7-1.9 2.6-2.6 3.6-0.9 1.4-1.9 2.8-3.1 3.9-2.3 2.3-5.3 3.7-8.4 4.6-3.1 0.9-6.3 1.4-9.5 2.2-2.3 0.5-4.7 1.2-6.6 2.6-0.8 0.6-1.6 1.5-1.5 2.5 0.2 1.2 1.6 1.8 2.8 2z"/>
			</g>
			<g id="&lt;Group&gt;">
				<path id="&lt;Path&gt;" class="s1" d="m338.4 786.6q-0.1 0-0.2 0.1c-3.7 0.7-7.6 0.6-11.4 0.6-7 0.1-14 0.1-20.9-0.2-4.3-0.2-6.1-2.3-6.9-6.3-0.8-4.1-1.1-8.4-0.9-12.6 0-0.4 0.1-0.8 0.3-1.2 0.3-0.4 0.8-0.6 1.3-0.8q2.5-0.9 5.2-1.3c1.3-0.1 3.5-0.5 4.6 0.3 1 0.7 1.8 2.6 2.5 3.6 1 1.4 1.9 2.8 3.1 3.9 2.3 2.3 5.4 3.7 8.5 4.6 3.1 0.9 6.3 1.4 9.4 2.2 2.3 0.5 4.7 1.2 6.7 2.6 0.8 0.6 1.5 1.5 1.4 2.5-0.2 1.2-1.5 1.8-2.7 2z"/>
			</g>
			<g id="&lt;Group&gt;">
				<path id="&lt;Path&gt;" class="s1" d="m253.8 323.3c-0.1 1-0.2 2-0.4 3-1.1 4.6-4.5 8-7 11.9-2.1 3.2-2.6 7.4-2 11.2 1.3 8.1 6.2 15.8 11.6 21.8 1.2 1.3 2.5 3 4 3.9 1.7 1 4.1 1.6 6 2.2 5.5 1.9 11.1 3.1 16.9 3.7 2.8 0.3 5.6 0.4 8.4 0.4 2.6 0.1 5.1-1.4 7.4-2.6 2.7-1.3 5.2-2.8 7.4-4.9 2.4-2.1 4.3-4.7 6.1-7.3 1.4-2 2.8-4.1 3.4-6.5 0.6-2.9-0.2-6 0.9-8.7 0.7-1.7 2-3.1 3-4.7 3.4-5.2-1.4-11.5 1.3-16.9 1.7-3.3 5.2-5.4 6.6-8.9 1.4-3.3 1.4-7.2 0-10.5-2.3-5.5-7.4-9.3-12.8-11.7-6.2-2.7-14.1-3.6-19.3 0.7-1.1 1-2 2.1-3.1 3.1-8.4 7.9-19.2 1.6-28.9 5.2-4 1.5-7.6 4.6-8.8 8.8-0.6 2.2-0.5 4.5-0.7 6.8z"/>
			</g>
			<g id="&lt;Group&gt;">
				<g id="&lt;Clip Group&gt;" clip-path="url(#cp1)">
					<path id="&lt;Path&gt;" class="s6" d="m508.9 369.9c0.6 2.6 1.7 5 3.2 6.9 5.3 6.7 17.8 2.2 24.1-0.6 7.3-3.3 12.5-9.7 13.2-17.8 0.1-2.3-0.1-4.6-1.2-6.5-2.5-4.3-8.5-5.1-12.9-6.1-5.3-1.2-10.9-1.4-16.2 0.2-9.2 2.8-12.5 14.6-10.2 23.9z"/>
					<path id="&lt;Path&gt;" class="s7" d="m537.8 360.1l-75-11.2 6.3 42.5z"/>
				</g>
				<g id="&lt;Group&gt;">
					<path id="&lt;Path&gt;" class="s8" d="m460.8 348.8l-334.1 42.2-4 46.5 344.9-45.6z"/>
				</g>
				<path id="&lt;Path&gt;" class="s9" d="m119.4 406.3l343.7-42.7-2.3-14.8-334.1 42.2z"/>
				<path id="&lt;Path&gt;" class="s10" d="m121.2 423.2l344.4-44 2 12.7-344.9 45.6z"/>
				<g id="&lt;Clip Group&gt;" clip-path="url(#cp2)">
					<path id="&lt;Path&gt;" class="s11" d="m91.6 389.5l7.3 54.5-24 1.7-7.8-50.4z"/>
					<path id="&lt;Path&gt;" class="s12" d="m102.2 388.7l7.4 55.4 11.8-0.9-7.8-55.5"/>
					<path id="&lt;Path&gt;" class="s13" d="m126.7 391l5.9 45.2-46.6 6.3c-4.2 0.5-8.1-2.4-8.7-6.7l-4.2-31.1c-0.6-4.4 2.5-8.3 6.8-8.8z"/>
				</g>
				<path id="&lt;Path&gt;" class="s7" d="m466.9 379.4c-4 1.1-8.4-1.5-9.7-5.9-1.2-4.4 1.1-8.9 5.1-10.1 4.1-1.2 8.5 1.4 9.7 5.9 1.3 4.4-1 8.9-5.1 10.1z"/>
				<path id="&lt;Path&gt;" class="s7" d="m468.4 391.6c-3.7 1.1-7.5-0.9-8.5-4.3-1-3.5 1.2-7.2 4.9-8.3 3.7-1 7.5 0.9 8.5 4.4 1 3.5-1.2 7.2-4.9 8.2z"/>
				<path id="&lt;Path&gt;" class="s7" d="m464 363.6c-3.7 1.1-7.6-1.3-8.8-5.3-1.1-4 1-8.1 4.7-9.2 3.7-1.1 7.6 1.3 8.8 5.3 1.1 4-0.9 8.1-4.7 9.2z"/>
			</g>
			<path id="&lt;Path&gt;" class="s2" d="m213.8 696c7.3-30.4 14.1-60.9 18.1-91.8 1.2-10 2.5-19.9 3.8-29.8 1.5-10.7 3.3-20.9 5.4-36.1 0.8-5.5 12.1-5.4 17.5-6.7 13.5-3.1 27.5-1.5 41.2-1.2 5 0.1 11.8-2.1 15.2 2.4 3.5 4.7 3.4 13 3.7 18.6 2.9 49.7-3.1 99.4-4.5 149-0.6 20.9-0.2 41.6 0.8 62.4 0.2 4.2-0.8 8.2-5.5 8.8-2.2 0.3-6.6 0.1-8.5-1-4.5-2.6-7.3-11-8.8-15.5-2.2-6.4-3.3-13.2-4.5-19.9-2.1-12.4-3.2-24.9-4-37.5-2.8-40.8-4.9-67.2-1.8-111.6-4.2 23.9-4.1 39.5-11.4 62.6-7 21.9-17.1 42.7-27.6 63.1-5.8 11.3-11.4 22.8-17.7 33.9-3.1 5.5-6.5 10.9-10.2 16.1-3.2 4.6-5.7 9.2-11.7 9.9-2.6 0.3-5.2 0-7.8-0.3-0.8-0.1-1.6-0.3-1.9-0.9-0.2-0.4-0.2-0.9-0.1-1.3 1.8-12.2 7.8-24.1 11.1-35.9 3.3-12.4 6.2-24.9 9.2-37.3z"/>
			<path id="&lt;Path&gt;" class="s14" d="m236.1 539.5c0.7-0.6 1.6-1 2.5-1.4q2.6-1 5.3-1.6c4.3-1 3.9 1.6 4.8 4.5 1 3.6 3.1 7.1 4.5 10.6 1.5 3.8 4.2 7.1-0.2 9.6-2.2 1.3-4.7 2.1-7.3 2.3-0.5 0.1-1 0.1-1.5-0.1-0.4-0.2-0.7-0.6-1-0.9-2-2.4-3.9-5-5.7-7.5-2.6-3.7-4.6-6.8-3.9-11.4 0.2-0.9 0.4-1.7 0.8-2.5 0.5-0.6 1-1.2 1.7-1.6z"/>
			<g id="&lt;Group&gt;">
				<g id="&lt;Group&gt;">
					<path id="&lt;Path&gt;" class="s15" d="m238.3 565.2c5.5 0.4 10.7 0.3 15.5-2.8 4.5-2.9 7.5-7.2 9.7-12 0.5-1.2-1.2-2.2-1.7-1.1-2 4.5-4.8 8.7-9.1 11.4-4.4 2.8-9.3 2.8-14.4 2.5-1.2 0-1.2 2 0 2z"/>
				</g>
			</g>
			<g id="&lt;Group&gt;">
				<g id="&lt;Group&gt;">
					<path id="&lt;Path&gt;" class="s15" d="m317.9 572.7c-11.2 1.7-13.4-16.4-14.6-24.1-0.3-1.3-2.2-0.8-2 0.5 1.2 6.9 2.6 14.4 6.3 20.5 2.5 4.3 5.8 5.8 10.8 5 1.3-0.1 0.8-2.1-0.5-1.9z"/>
				</g>
			</g>
			<path id="&lt;Path&gt;" class="s10" d="m300 530.4q-0.2 0-0.5 0c-13.7-0.3-27.6-1.9-41.1 1.2-5.4 1.3-16.8 1.2-17.5 6.7-0.7 4.4-1.2 8.3-1.8 12 2.5 2.1 5.7 3.6 8.2 4.6 9 3.8 18.5 6.1 28.1 7.7 11 1.9 26.1 0 31.8 12 2.6 5.6 2.8 12 2.9 18.3 0.5 29.1 1.1 59-1.5 88.3-1.3 14.9-3.4 29.8-6.7 44.5-2.5 11.6-7 24-7.4 36.2 1.6 3.6 3.6 7.2 6.3 8.7 1.9 1.1 6.3 1.3 8.5 1 4.7-0.6 5.7-4.6 5.5-8.8-1-20.8-1.4-41.5-0.8-62.4 1.4-49.6 7.4-99.3 4.5-149-0.1-2.4-0.2-5.3-0.5-8.2-4.4-6-10.9-10.3-18-12.8z"/>
			<path id="&lt;Path&gt;" class="s14" d="m323.5 410.5c-1.3 0.7-2.5 1.5-3.6 2.6-4.3 4.5-2.9 13 3 15.5 7 3.1 15.5 1 22.5-0.9 16.8-4.6 32.5-12 47.7-20.3 2.2-1.2 5.5-2.6 8-4.5 1.2-0.9 2.2-2 2.8-3.2z"/>
			<path id="&lt;Path&gt;" class="s16" d="m325.3 440.7c-1.3-6.3-3-12.4-5.5-18.3-2.7-6.8-7.3-14.8-13.7-18.7-6-3.6-17.9-0.2-24.5 1.4-6.3 1.5-15.8 3.4-20.9 7.6-4.7 3.9-4.2 13.6-3.6 19.2 0.7 6.5 2.2 12.9 2.8 19.3 1.1 11.9-1.3 23.7-4.1 35.2-3.3 13.8-7.4 27.5-12.7 40.7-0.8 1.9-1.6 4-1.4 6.1 0.4 3.6 3.6 6.1 6.7 7.9 20.4 12.1 45.4 10.2 68.3 9.1 1.9-0.1 3.9-0.2 5.5-1.3 1.9-1.4 2.6-3.9 3.2-6.2 2.8-12.6 2.9-25.6 2.8-38.4-0.1-20.9 1.2-42.9-2.9-63.6z"/>
			<path id="&lt;Path&gt;" class="s14" d="m290.3 409.9q-6.9-2.1-13.6-4.6c-0.4-0.2-0.9-0.4-1.2-0.8-1-0.9-0.8-3-0.9-4.3-0.1-1.6 0-3.3 0.1-4.9 0.2-3 0.7-6 0.7-9 0-2.5 0-5 1.1-7.2 1.3-2.5 4-4.2 6.8-4.8 2.9-0.7 5.8-0.6 8.7-0.4 0.8 0 1.8 0.1 2.4 0.7 2.1 1.8 1.6 5.4 1.9 7.9 0.4 3.7 1.2 7.3 2 10.9 0.4 1.7 0.9 3.3 1.3 5 0.3 1.3 1 3 0.5 4.3-1.1 2.9-3.6 5.5-6.1 7.3-0.3 0.2-0.7 0.4-1.1 0.5-0.4 0.1-0.8 0-1.2-0.2q-0.7-0.2-1.4-0.4z"/>
			<path id="&lt;Path&gt;" class="s17" d="m278.7 393.9c5.7 3.6 13.7 5.8 20.5 3.9q-0.4-2.2-0.9-4.4c-0.8-3.6-1.6-7.2-2-10.9-0.3-2.5 0.2-6.1-1.9-7.9-0.7-0.6-1.6-0.7-2.4-0.7-2.9-0.2-5.8-0.3-8.7 0.4-2.8 0.6-5.5 2.3-6.8 4.8-1.1 2.2-1.1 4.7-1.1 7.2 0 1.5-0.1 3.2-0.2 4.9q1.7 1.5 3.5 2.7z"/>
			<path id="&lt;Path&gt;" class="s14" d="m262.5 362.7c1.5 10.4 7.3 20.4 16.3 26.2 6.8 4.4 17 6.6 24.4 2.1 9.9-6 11.9-20.7 11.7-31.2-0.3-12.5-5.2-26.5-17.3-32-8.5-3.9-21.8-4.3-27.9 3.8-6.3 8.4-8.7 20.2-7.2 31.1z"/>
			<path id="&lt;Path&gt;" class="s14" d="m379.5 353.9c4.7 4.4 8.1 10 3.2 12.9-1.6 0.9-3.6-0.6-4.6-2.1-1-1.6-1.9-3.5-3.7-3.9-1.4-0.4-2.9 0.4-4.1 1.1q-7 4-14.1 8c-0.7 0.5-1.5 0.9-2.3 1.1-2.7 0.7-5.5-1.1-6.6-3.6-1-2.5-0.6-5.4 0.5-7.8 4.1-8.7 10.2-9.6 18.8-9.9 5.1-0.2 9.1 0.6 12.9 4.2z"/>
			<g id="&lt;Group&gt;">
				<path id="&lt;Path&gt;" class="s1" d="m300.8 327.2c-2.6 0.3-5.1 1.3-7.2 2.7-4.3 3-7 7.8-10.9 11.2-3.7 3.3-8.3 5.3-12.7 7.4-0.9 0.4-1.7 0.8-2.3 1.5-0.7 1-0.9 2.2-0.8 3.4 0.4 6.7 4.9 12.6 1.5 19.3-0.4 0.7-0.8 1.4-1.5 1.8-3.8 2.9-7.2-4.3-8.6-6.9-2-3.9-3.2-8.2-3.7-12.6-0.8-8.7 0.9-20.3 7.9-26.2 6.8-5.7 15.4-9.5 24.4-9.6 3 0 6.2 0.4 9 1.3 1.8 0.5 2.9 1.2 4.3 2.3 0.8 0.7 1.6 1.1 2.2 2 0.1 0.2 1.1 2.3 1 2.3q-1.3 0-2.6 0.1z"/>
			</g>
			<path id="&lt;Path&gt;" class="s4" d="m287.3 374.9c3.8-0.3 7.5-0.2 11.3-1.1 3.8-0.8 7.5-2.2 10.9-4 0 0-0.4 4.1-0.5 4.5-0.5 1.6-1.2 3.2-2.2 4.6-3.3 4.4-10.7 5.7-15.3 2.7-1.3-0.7-2.3-1.8-3.1-3.1-0.1-0.2-1.6-3.5-1.1-3.6z"/>
			<g id="&lt;Group&gt;">
				<g id="&lt;Group&gt;">
					<path id="&lt;Path&gt;" class="s1" d="m300.6 345.3c3-1.5 7-1.8 9.5 0.9 0.8 0.9 2.2-0.5 1.4-1.4-3.1-3.4-8.1-3.1-11.9-1.3-1.2 0.6-0.2 2.3 1 1.8z"/>
				</g>
			</g>
			<g id="&lt;Group&gt;" style="opacity: .2">
				<path id="&lt;Path&gt;" class="s18" d="m280.8 587.7c-1.1 3.7-2 7.6-3 11.3-4.7 17-10.8 34.3-19.4 50-9.4 17.2-22.7 30.7-35.3 45.5-4.4 5.2-8.8 10.6-12.9 16.2-1.8 7.6-3.6 15.1-5.6 22.6-3.3 11.8-9.3 23.7-11.1 35.9-0.1 0.4-0.1 0.9 0.1 1.3 0.3 0.6 1.1 0.8 1.9 0.9 2.6 0.3 5.2 0.6 7.8 0.3 6-0.7 8.5-5.3 11.7-9.9 3.7-5.2 7.1-10.6 10.2-16.1 6.3-11.1 11.9-22.6 17.7-33.9 10.5-20.4 20.6-41.2 27.6-63.1 7.3-23.1 7.2-38.7 11.4-62.6-0.3-0.1-1 1.4-1.1 1.6z"/>
				<path id="&lt;Path&gt;" class="s18" d="m281.9 586.1q-0.1 0.4-0.1 0.8c0.1-0.4 0.2-0.8 0.1-0.8z"/>
			</g>
			<path id="&lt;Path&gt;" class="s19" d="m280.1 443.3q0 4.7 0.1 9.5c0 2 0.1 4-0.4 5.9-0.5 1.9-1.6 3.8-3.4 4.8-3.6 2-9.3-1.1-11.3-4.2-3.2-4.9-4.3-10.3-4.4-16q9.7 0 19.4-0.1 0 0.1 0 0.1z"/>
			<path id="&lt;Path&gt;" class="s14" d="m267.7 370.2c2.3 4.1 2.2 8.7-0.3 10.1-2.6 1.5-6.5-0.7-8.9-4.8-2.4-4.1-2.2-8.6 0.3-10.1 2.5-1.4 6.5 0.7 8.9 4.8z"/>
			<path id="&lt;Path&gt;" class="s1" d="m285.3 358.7c0.6 2.7-0.1 5.1-1.5 5.4-1.4 0.3-3-1.6-3.6-4.3-0.6-2.6 0.1-5.1 1.5-5.4 1.5-0.3 3.1 1.7 3.6 4.3z"/>
			<path id="&lt;Path&gt;" class="s1" d="m308 354.2c0.3 2.7-0.7 5-2.2 5.1-1.4 0.2-2.8-2-3-4.7-0.2-2.7 0.8-5 2.2-5.1 1.5-0.1 2.8 2 3 4.7z"/>
			<g id="&lt;Group&gt;">
				<g id="&lt;Group&gt;">
					<path id="&lt;Path&gt;" class="s1" d="m283.8 346.9c-4.9-0.5-9 2.9-10.8 7.1-0.4 1.2 1.5 1.8 2 0.6 1.4-3.5 4.9-6.1 8.8-5.7 1.3 0.1 1.2-1.9 0-2z"/>
				</g>
			</g>
			<path id="&lt;Path&gt;" class="s4" d="m300.1 400.5l-6.9 9.8 10.2 8.6v-16.6z"/>
			<path id="&lt;Path&gt;" class="s4" d="m265.5 408.5l9.3-6.5 18.4 8.3-4.7 11.9z"/>
			<g id="&lt;Group&gt;">
				<path id="&lt;Path&gt;" class="s1" d="m245.8 541.9c-5.2 0.3-8.7-4.2-8.8-9.6q-0.1-2.9 0-5.8c0.9-15 7-28.9 12.3-42.8 4.6-12.1 7.4-25 7.1-38-0.3-10.4-2.3-20.9-6.2-30.6-0.1-0.2-0.2-0.4-0.2-0.6 0.1-0.2 0.2-0.3 0.3-0.5 2.4-2.9 5.7-4.8 8.8-6.7 3.5-2 6.8-3.9 10.7-5.1 0.7-0.2 3.2-1.3 3.7-1.2 3.1 0.8 6.5 10.4 7.7 13.1 12.7 28.1 7.5 61.6-5.3 88.7-6.3 13.2-13.5 26.3-24.1 36.4-0.8 0.9-1.7 1.7-2.9 2.1q-1.6 0.6-3.1 0.6z"/>
			</g>
			<g id="&lt;Group&gt;">
				<path id="&lt;Path&gt;" class="s1" d="m216.6 464.5c-3.6 6.1-7.9 12.7-9.1 19.5-1.5 8.8 0.9 17 3.7 25.4 5.1 15.7 12.9 30.3 21.9 43.9 0.4 0.6 0.9 1.2 1.6 1.2 0.3-0.1 0.6-0.3 0.9-0.4q6.6-4.4 13.2-8.8c0.7-0.4 1.4-0.9 1.7-1.7 0.6-1.1 0.1-2.4-0.3-3.5q-6-15.2-12-30.3c-1.8-4.4-3.6-9-4-13.7-0.7-7.1 1.7-14.3 5.4-20.3 3.8-6.1 8.9-11.2 14.1-16 1.9-1.7 3.8-3.5 4.9-5.8 3.3-7.4 2.8-16 2-23.9-0.4-4.1 0.3-18-6.4-17.9-1.2 0.1-2.3 0.8-3.3 1.5-7.5 5.9-12.5 14.2-17.3 22.4-5.1 8.7-10.7 17.3-15.7 26.1q-0.6 1.1-1.3 2.3z"/>
			</g>
			<g id="&lt;Group&gt;">
				<path id="&lt;Path&gt;" class="s1" d="m331 517.2c0.3-20.6 0.6-41.2-0.6-61.7q-0.4-7.9-1.2-15.6c-0.3-3.4-0.7-3.3 1.8-5 1.8-1.2 4.9-1.8 6.9-2.5 12.7-4.6 25.3-9.2 37.9-14.1 11.2-4.3 22.2-9.8 30.1-19-11.6 2.5-23.4 3.6-35.2 4.7-15.9 1.5-31.9 2.9-47.9 2.5-6.5-0.2-13.6-1.3-19.4-4.2 2.2 5.9 5 12.5 5.2 18.8 0.3 7.5 0.8 14.9 1 22.4q0.8 22 0.7 44c0 22.8-1.6 44.7-3.8 67.3 5 0.4 10 0 14.7-1.3 0.9-0.2 1.7-0.5 2.4-1.1 0.7-0.6 1-1.4 1.4-2.2 2.5-6.2 4.4-12.7 5.3-19.4 0.5-4.5 0.6-9 0.7-13.6z"/>
			</g>
			<path id="&lt;Path&gt;" class="s20" d="m275.9 502.8c12.8-27.1 18-60.6 5.3-88.7-1.2-2.7-4.6-12.3-7.7-13.1-0.5-0.1-3 1-3.7 1.2q-0.4 0.1-0.7 0.2c0.3 1.3 1 2.3 1.7 3.7 1.2 2.8 1.9 5.8 2.6 8.8 2.9 13.1 3.3 26.8 1 40.1 1.9-0.2 3.9 0 5.7 0.6-0.3 2.1-1.9 3.7-2.8 5.6-1.8 3.7-1.1 8.1-0.7 12.2 1.2 10.6 0.6 21.5-1.9 31.9q0.6-1.3 1.2-2.5z"/>
			<path id="&lt;Path&gt;" class="s20" d="m321.3 457.6c-1.4-9.5-2.7-19-4.2-28.5-1.3-9-4.3-16.8-8.2-24.7-1.9-0.5-3.7-1.2-5.5-2.1 2.2 5.9 5 12.5 5.2 18.8 0.3 7.5 0.8 14.9 1 22.4q0.8 22 0.7 44 0 6.1-0.1 12.2c2.8-8.7 7-17.1 8.2-26.2 0.7-5.5 0.2-11-0.2-16.4 0.9 0.4 2 0.6 3.1 0.5z"/>
			<g id="&lt;Group&gt;">
				<g id="&lt;Group&gt;">
					<path id="&lt;Path&gt;" class="s4" d="m295.2 416c7 20.5 5.3 43.7 4.3 65-1 21.7-6.5 42.3-10.4 63.7-0.3 1.2 1.7 1.8 1.9 0.5 4-21.5 9.4-42.3 10.5-64.2 1-21.5 2.7-44.8-4.4-65.5-0.4-1.2-2.3-0.7-1.9 0.5z"/>
				</g>
			</g>
		</g>
		<g id="&lt;Group&gt;">
			<g id="&lt;Group&gt;">
				<path id="&lt;Path&gt;" class="s21" d="m864.7 618.6l-26.3-9.3-13.8 24.7 0.8 0.3c-5.2-0.3-10.4-0.1-15.4 0.8l0.8-0.4-16.3-23.1-25.2 12 7.6 27.3 0.8-0.4c-3.8 3.4-7.3 7.2-10.3 11.4l0.3-0.8-27.9-4.8-9.3 26.3 24.7 13.9 0.3-0.8c-0.3 5.1-0.1 10.3 0.8 15.3l-0.4-0.8-23.1 16.4 12 25.2 27.3-7.7-0.4-0.8c3.4 3.8 7.2 7.3 11.4 10.3l-0.8-0.3-4.8 27.9 26.3 9.4 13.9-24.8-0.8-0.3c5.1 0.4 10.3 0.1 15.3-0.8l-0.8 0.4 16.4 23.2 25.2-12.1-7.7-27.2-0.8 0.3c3.8-3.3 7.3-7.1 10.3-11.4l-0.3 0.8 27.9 4.8 9.4-26.3-24.8-13.8-0.3 0.8c0.4-5.2 0.1-10.4-0.8-15.4l0.4 0.8 23.2-16.3-12.1-25.2-27.2 7.6 0.3 0.8c-3.3-3.8-7.1-7.3-11.4-10.3l0.9 0.3z"/>
				<path id="&lt;Path&gt;" class="s22" d="m840.2 646.2c29.7 10.5 45.2 43.1 34.7 72.8-10.5 29.7-43.1 45.2-72.8 34.7-29.7-10.5-45.3-43.1-34.7-72.8 10.5-29.7 43.1-45.3 72.8-34.7z"/>
				<path id="&lt;Path&gt;" class="s23" d="m835.4 659.5c22.3 7.9 34 32.4 26.1 54.7-7.9 22.3-32.4 34-54.7 26.1-22.3-7.9-34-32.4-26.1-54.7 7.9-22.3 32.4-34 54.7-26.1z"/>
				<g id="&lt;Group&gt;">
					<path id="&lt;Path&gt;" class="s4" d="m831.1 671.8c15.5 5.5 23.6 22.6 18.1 38.1-5.5 15.5-22.5 23.6-38 18.1-15.5-5.5-23.7-22.5-18.2-38 5.5-15.5 22.6-23.7 38.1-18.2z"/>
				</g>
			</g>
		</g>
		<g id="&lt;Group&gt;">
			<g id="&lt;Group&gt;">
				<path id="&lt;Path&gt;" class="s21" d="m826.3 494l-16.8-8.2-11 15.5 0.5 0.2c-3.4-0.6-6.9-0.8-10.3-0.6l0.6-0.2-9.2-16.6-17.7 6.2 3.1 18.7 0.6-0.2c-2.8 2-5.4 4.3-7.7 6.9l0.2-0.6-18.2-5.2-8.2 16.8 15.5 11.1 0.2-0.6c-0.6 3.5-0.8 6.9-0.6 10.3l-0.2-0.5-16.6 9.2 6.2 17.6 18.7-3.1-0.2-0.5c2 2.8 4.2 5.4 6.9 7.7l-0.6-0.3-5.2 18.3 16.8 8.1 11.1-15.4-0.6-0.3c3.5 0.6 6.9 0.8 10.3 0.6l-0.5 0.2 9.1 16.6 17.7-6.1-3.1-18.8-0.5 0.2c2.8-1.9 5.3-4.2 7.7-6.8l-0.3 0.5 18.2 5.3 8.2-16.9-15.4-11-0.3 0.5c0.6-3.4 0.8-6.9 0.6-10.3l0.2 0.6 16.6-9.2-6.1-17.7-18.8 3.1 0.2 0.6c-1.9-2.8-4.2-5.4-6.8-7.7l0.5 0.2z"/>
				<path id="&lt;Path&gt;" class="s22" d="m808 510.5c19 9.2 26.9 32.1 17.7 51.1-9.2 19-32 26.9-51 17.7-19-9.2-27-32-17.8-51 9.2-19 32.1-27 51.1-17.8z"/>
				<path id="&lt;Path&gt;" class="s23" d="m803.8 519.1c14.3 6.9 20.3 24.1 13.4 38.3-7 14.3-24.1 20.3-38.4 13.4-14.3-6.9-20.2-24.1-13.3-38.4 6.9-14.3 24-20.2 38.3-13.3z"/>
				<g id="&lt;Group&gt;">
					<path id="&lt;Path&gt;" class="s4" d="m800 526.9c9.9 4.8 14.1 16.8 9.3 26.7-4.8 10-16.8 14.1-26.7 9.3-9.9-4.8-14.1-16.7-9.3-26.7 4.8-9.9 16.8-14.1 26.7-9.3z"/>
				</g>
			</g>
		</g>
	</g>
</svg>